<svg id="Capa_1" enable-background="new 0 0 512 512" height="512" viewBox="0 0 512 512" width="512" xmlns="http://www.w3.org/2000/svg"><g><path d="m374.388 275.578h-9.185v-230.578c0-24.813-20.187-45-45-45h-128.406c-24.813 0-45 20.187-45 45v230.578h-9.185c-18.459 0-33.422 14.964-33.422 33.422 0 10.586 4.927 20.016 12.607 26.139v176.861h30v-59.538h218.406v59.538h30v-176.861c7.68-6.124 12.607-15.553 12.607-26.139 0-18.458-14.964-33.422-33.422-33.422zm-39.185-230.578v230.578h-30v-245.578h15c8.271 0 15 6.729 15 15zm-98.406 230.578v-245.578h38.406v245.578zm-60-230.578c0-8.271 6.729-15 15-15h15v245.578h-30zm-30 377.462v-80.04h218.406v80.04z"/></g></svg>