<?xml version="1.0" encoding="utf-8"?>
<!-- Generator: Adobe Illustrator 22.1.0, SVG Export Plug-In . SVG Version: 6.00 Build 0)  -->
<svg version="1.1" id="Capa_1" xmlns="http://www.w3.org/2000/svg" xmlns:xlink="http://www.w3.org/1999/xlink" x="0px" y="0px"
	 viewBox="0 0 512 512" style="enable-background:new 0 0 512 512;" xml:space="preserve">
<style type="text/css">
	.st0{fill:#44D1B2;}
	.st1{fill:#BF8E63;}
	.st2{fill:#FE9923;}
	.st3{fill:#FEA832;}
	.st4{fill:#FFDA2D;}
	.st5{fill:#FFCC33;}
</style>
<path class="st0" d="M509.6,306.6c-2.7-3.9-7.2-6.6-12.6-6.6h-90c-5.7,0-10.8,3.3-13.5,8.4l-9,18l-76.2,154.2
	c-3,5.7-1.5,12.9,3.3,17.4c22.2,21.5,59.1,17.6,77.4-9c7.8-12,26.3-12.7,34.8-0.3c18.4,28.5,63.1,33.4,85.2,0.3c0-0.3,0-0.3,0-0.6
	c2.1-2.4,3-5.4,3-8.7V315C512,312,511.1,309,509.6,306.6z"/>
<path class="st0" d="M497,58.8c-8.4,0-15,6.9-15,15c0,75.4-98.6,102.2-137.1,41.4c-5.1-7.9-17.6-10.5-24.9-0.3
	c-3,4.2-6.3,8.4-12,13.8c-3.9,3-6,7.5-6,12v83.1c0,50.1,35.4,92.1,82.5,102.6c7.2,1.5,14.7,2.4,22.5,2.4h105v-255
	C512,65.7,505.4,58.8,497,58.8z"/>
<path class="st1" d="M512,306.3v22.5h-45c-10.2,0-36-18.6-45-28.8c-19.2-20.4-30-47.1-30-76.2c0-19.8,30-19.8,30,0
	c0,33.6,19.8,63.3,51,76.2c11.1,4.2,23.4,6.6,36.6,6.6C510.5,306.6,511.1,306.6,512,306.3z"/>
<path class="st0" d="M203.7,480.6l-76.2-154.2l-9-18c-2.7-5.1-7.8-8.4-13.5-8.4H15c-5.4,0-9.9,2.7-12.6,6.6C0.9,309,0,312,0,315
	v164.7c0,3,0.9,6,2.7,8.7c0.3,0,0.3,0.3,0.3,0.6c20.6,30.9,65.8,29.9,84.9,0c8.4-12,26.6-13.1,35.1,0c18.1,26.2,54.8,30.8,77.4,9
	C205.2,493.5,206.7,486.3,203.7,480.6z"/>
<path class="st0" d="M204.9,129.9c-4.5-3.9-8.7-9-12.3-14.4c-7.9-11.1-20.3-7.6-25.2,0C127.5,176.2,30,148.7,30,73.8
	c0-8.1-6.6-15-15-15s-15,6.9-15,15v255h105c7.8,0,15.3-0.9,22.5-2.4c47.1-10.5,82.5-52.5,82.5-102.6V141
	C210,136.8,208.2,132.9,204.9,129.9z"/>
<path class="st1" d="M120,223.8c0,29.1-10.8,55.8-30,76.2c-15.2,17.3-38.3,28.8-45,28.8H0v-22.2h2.4c50,1.1,87.6-36.6,87.6-82.8
	C90,204,120,204,120,223.8z"/>
<path class="st2" d="M319.7,132.6c-3.2-5-3.2-11.4,0.1-16.4c8-12.1,12.2-26.4,12.2-41.2c0-8.3,6.7-15,15-15h150c8.3,0,15,6.7,15,15
	C512,179.4,375.6,219,319.7,132.6z"/>
<path class="st3" d="M0,75c0-8.3,6.7-15,15-15h150c8.3,0,15,6.7,15,15c0,14.5,4.4,28.9,12.6,41.7c3.2,5,3.2,11.4-0.1,16.4
	C136,218.8,0,179.3,0,75z"/>
<path class="st4" d="M347,60H165c-8.4,0-15,6.6-15,15c0,20.4,6,40.2,17.4,58.2c20.7,30.6,56,46.8,89.6,46.8
	c33.3,0,65.1-15,87.9-47.1C356,115.8,362,95.7,362,75C362,66.6,355.4,60,347,60z"/>
<path class="st5" d="M362,75c0,20.7-6,40.8-17.1,57.9C322.1,165,290.3,180,257,180V60h90C355.4,60,362,66.6,362,75z"/>
<path class="st1" d="M467,0H45C20.1,0,0,20.1,0,45v45h512V45C512,20.1,491.9,0,467,0z"/>
<path class="st1" d="M512,45v45H257V0h210C491.9,0,512,20.1,512,45z"/>
</svg>
