<?xml version="1.0" encoding="iso-8859-1"?>
<!-- Generator: Adobe Illustrator 19.0.0, SVG Export Plug-In . SVG Version: 6.00 Build 0)  -->
<svg version="1.1" id="Layer_1" xmlns="http://www.w3.org/2000/svg" xmlns:xlink="http://www.w3.org/1999/xlink" x="0px" y="0px"
	 viewBox="0 0 511.999 511.999" style="enable-background:new 0 0 511.999 511.999;" xml:space="preserve">
<g>
	<g>
		<path d="M506.648,488.298L390.076,217.855l-18.341,40.336l74.38,172.561H313.52l-9.859-22.856l-18.337,40.325l22.891,53.069
			c3.591,8.324,13.246,12.152,21.561,8.565c8.319-3.589,12.153-13.242,8.565-21.56l-10.669-24.733h132.585l16.261,37.724
			c3.588,8.325,13.243,12.156,21.559,8.571C506.397,506.27,510.234,496.618,506.648,488.298z"/>
	</g>
</g>
<g>
	<g>
		<path d="M128.163,346.397c-8.65-3.353-31.656-12.269-38.826-15.048c2.221,11.002,4.128,20.459,7.845,38.884
			c1.662,8.235,3.883,16.031,0.848,27.337l-8.596,32.016l26.569-58.456h14.878L128.163,346.397z"/>
	</g>
</g>
<g>
	<g>
		<path d="M348.588,15.302c-0.012,0-0.023,0-0.035,0l-46.273,0.026c-40.402,0.021-77.311,23.803-94.027,60.584l-45.135,99.305
			c18.717-2.631,24.425-3.433,32.979-4.636c16.141-2.269,31.429,5.155,40.061,17.874c1.974,0,86.73,0,89.311,0l-26.615,58.528
			c-7.298,0-68.235,0-75.517,0c-4.879,2.959-10.178,4.825-15.714,5.602l-58.271,8.191l45.039,19.016c2.066,0,87.164,0,89.545,0
			l-26.614,58.528c-15.434,0-27.194,0-42.028,0l3.606,32.809h23.502l-26.961,58.528h-13.848c2.352-4.28,3.463-9.297,2.89-14.521
			l-11.278-102.616c-1.004-9.128-7.006-16.938-15.568-20.256l-44.733-17.338l-0.312-11.795l-8.548,1.201
			c-19.273,2.708-34.776-8.78-39.4-17.332l-41.07-75.983l58.911,66.34c4.375,4.926,10.71,7.696,18.737,6.892l83.579-11.748
			c12.27-1.723,20.543-13.659,17.587-25.898c-2.488-10.327-12.56-17.473-23.468-15.941l-72.362,10.171l-53.349-60.076l57.156,38.224
			c-0.38-14.355-0.647-24.439-1.028-38.794c-0.46-17.39-14.932-31.114-32.321-30.653l-56.151,1.487
			c-17.39,0.46-31.114,14.932-30.653,32.321c0.142,5.367,3.992,150.679,3.992,150.679s8.794,53.328,16.315,91.403L4.855,481.004
			C1.33,494.13,9.114,507.627,22.24,511.151c13.111,3.523,26.619-4.249,30.146-17.385l27.16-101.157
			c0.987-3.672,1.108-7.521,0.355-11.247c-1.797-8.905-13.981-69.292-15.694-77.782l6.023-0.16l75.686,29.334l9.646,87.761
			c0.364,3.315,1.385,6.392,2.896,9.144c-7.281,0-61.967,0-69.043,0l-8.809,32.809c13.013,0,105.872,0,120.263,0l-10.03,22.057
			c-4.364,9.595-0.122,20.912,9.474,25.275c9.593,4.362,20.91,0.124,25.275-9.474L405.76,104.104
			C424.669,62.518,394.237,15.302,348.588,15.302z M371.011,88.304l-30.622,67.343c-12.407,0-111.486,0-126.445,0l29.062-63.941
			c10.542-23.195,33.817-38.193,59.297-38.206l46.273-0.026c0.004,0,0.009,0,0.013,0C366.506,53.474,378.421,72.006,371.011,88.304z
			"/>
	</g>
</g>
<g>
	<g>
		<circle cx="75.335" cy="46.627" r="46.627"/>
	</g>
</g>
<g>
</g>
<g>
</g>
<g>
</g>
<g>
</g>
<g>
</g>
<g>
</g>
<g>
</g>
<g>
</g>
<g>
</g>
<g>
</g>
<g>
</g>
<g>
</g>
<g>
</g>
<g>
</g>
<g>
</g>
</svg>
