<svg id="Capa_1" enable-background="new 0 0 512 512" height="512" viewBox="0 0 512 512" width="512" xmlns="http://www.w3.org/2000/svg"><g><path d="m183.801 219.469c32.394 6.326 65.199-8.063 65.199-23.469 0-11.801-20.955-25-49-25-26.242 0-49 12.319-49 25 0 9.737 14.102 19.827 32.801 23.469z"/><path d="m342.54 293h56.46v-36.191c-16.088 15.216-36.365 27.108-56.46 36.191z"/><path d="m45.367 250.197c27.787 17.054 65.187 30.906 102.608 38.005 114.37 21.73 251.025-35.629 251.025-92.202 0-35.35-21.696-68.025-61.093-92.007-37.071-22.565-86.048-34.993-137.907-34.993-106.775 0-200 53.702-200 127 0 17.391 16.757 36.638 45.367 54.197zm76.293-61.47c5.025-27.644 37.974-47.727 78.34-47.727 44.299 0 79 24.159 79 55s-34.701 55-79 55c-7.47 0-14.852-.701-21.941-2.086-34.126-6.646-57.059-27.912-57.059-52.914 0-2.438.223-4.886.66-7.273z"/><path d="m200 323c-19.641 0-39.027-1.791-57.62-5.324-47.09-8.933-107.062-30.637-142.38-63.266v93.59c0 28.588 20.419 54.918 55.683 74.142 19.902 10.844 41.913 17.638 65.423 20.193 1.133.123.205.083 23.895.12v-54.031c0-8.077 6.207-15.027 14.275-15.407 8.613-.406 15.724 6.458 15.724 14.983v54.501l50 .078v-54.155c0-8.077 6.207-15.027 14.275-15.407 8.614-.406 15.725 6.458 15.725 14.983v54.625l50 .078v-54.279c0-8.077 6.207-15.027 14.275-15.407 8.614-.406 15.725 6.458 15.725 14.983v54.75l50 .078v-54.404c0-8.077 6.207-15.027 14.275-15.407 8.614-.406 15.725 6.458 15.725 14.983v54.874l81.977.126c7.848 0 15.023-6.146 15.023-15.256v-89.744c0-8.284-6.716-15-15-15z"/></g></svg>